<?xml version="1.0" encoding="utf-8"?>
<svg xmlns="http://www.w3.org/2000/svg" height="597px" style="shape-rendering:geometricPrecision; text-rendering:geometricPrecision; image-rendering:optimizeQuality; fill-rule:evenodd; clip-rule:evenodd" version="1.1" viewBox="0 0 80373 59884" width="801px">
 <defs>
  <style type="text/css">
   
    .fil2 {fill:#FEFEFE}
    .fil3 {fill:#9D9E9E}
    .fil4 {fill:#0077BD}
    .fil1 {fill:#9D9E9E;fill-rule:nonzero}
    .fil0 {fill:#0077BD;fill-rule:nonzero}
   
  </style>
 </defs>
 <g id="Ebene_x0020_1">
  
  <path class="fil0" d="M0 29940c0,-16463 13286,-29821 29720,-29940l441 0c16433,119 29719,13477 29719,29940 0,5475 -1469,10606 -4034,15022l-6455 -6120c1242,-2710 1935,-5725 1935,-8902 0,-11812 -9574,-21387 -21385,-21387 -11812,0 -21386,9575 -21386,21387 0,11813 9574,21388 21386,21388 6338,0 12032,-2757 15948,-7138l6210 5887c-5477,6025 -13376,9807 -22158,9807 -16537,0 -29941,-13406 -29941,-29944z"/>
  <polygon class="fil0" points="55321,45702 59947,50089 53418,50089 52618,49330 47101,44100 41882,39154 48416,39154 49912,40572"/>
  <polygon class="fil1" points="59876,48775 79162,26915 80373,26915 60536,49400"/>
  <polygon class="fil1" points="58562,47529 76749,26915 77960,26916 59222,48155"/>
  <polygon class="fil1" points="57249,46284 74336,26915 75548,26915 57908,46909"/>
  <polygon class="fil2" points="12625,12705 10775,10791 10076,11467 9639,11014 11634,9087 12071,9539 11372,10215 13220,12130"/>
  <path class="fil2" d="M14413 8839l-50 40c-30,11 -68,32 -115,63 -47,31 -97,68 -150,111 -63,51 -122,114 -177,189 -54,74 -104,151 -150,229l1045 1290 -602 487 -1560 -1928 601 -487 223 277c8,-48 20,-111 38,-189 18,-78 38,-144 60,-199 22,-63 54,-126 97,-192 43,-66 90,-120 142,-162 19,-16 42,-33 66,-51 26,-18 49,-34 70,-48l462 570z"/>
  <path class="fil2" d="M15101 7076l-538 336 -319 -511 537 -335 320 510zm902 -564l-538 336 -319 -510 537 -336 320 510zm962 2430c-21,65 -40,124 -57,177 -17,52 -45,111 -87,179 -40,65 -83,123 -129,173 -46,50 -118,106 -218,168 -185,116 -379,150 -579,101 -202,-49 -361,-168 -480,-358 -98,-157 -146,-303 -144,-438 2,-136 44,-268 126,-398 81,-131 198,-260 348,-385 150,-125 316,-253 498,-384l-8 -11c-72,-117 -165,-170 -278,-161 -113,9 -254,66 -424,173 -78,48 -159,118 -245,211 -85,93 -164,191 -235,296l-56 36 -318 -510c53,-59 144,-147 273,-263 129,-116 267,-220 414,-312 362,-226 664,-331 905,-314 240,18 439,151 594,398l896 1435 -656 410 -140 -223zm-204 -327l-275 -440c-104,80 -187,145 -249,196 -63,51 -121,109 -171,173 -45,56 -70,114 -76,175 -6,61 12,125 54,192 62,99 131,151 207,155 75,4 165,-26 268,-90 57,-36 107,-85 150,-149 43,-64 73,-134 92,-212z"/>
  <path class="fil2" d="M20351 7164c97,208 149,399 157,572 7,173 -23,325 -89,455 -66,132 -163,250 -292,355 -129,104 -283,198 -461,281 -150,70 -297,127 -440,170 -144,43 -271,76 -382,97l-263 -564 82 -39c41,-3 89,-7 144,-13 56,-6 110,-14 165,-23 65,-12 127,-26 186,-42 60,-17 118,-38 176,-65 119,-56 213,-114 281,-176 69,-62 112,-125 132,-189 18,-65 21,-133 8,-204 -14,-70 -43,-154 -88,-250l-20 -42c-46,106 -112,205 -196,295 -84,91 -181,161 -291,213 -292,136 -562,146 -809,31 -247,-115 -461,-366 -641,-753 -82,-176 -131,-346 -148,-509 -16,-163 -4,-314 38,-453 38,-134 105,-253 198,-360 95,-106 205,-189 332,-248 116,-54 226,-88 331,-101 104,-13 206,-13 304,2l-21 -112 680 -317 927 1989zm-912 -125l-476 -1021c-43,0 -92,7 -148,20 -56,13 -110,31 -161,55 -169,79 -271,192 -305,341 -35,149 -6,322 85,517 45,97 90,177 135,238 44,62 95,111 155,147 57,35 119,53 185,54 67,0 142,-19 227,-59 63,-29 120,-68 172,-119 51,-49 94,-107 131,-173z"/>
  <path class="fil2" d="M22187 5152c-55,-156 -130,-263 -226,-323 -95,-60 -213,-67 -355,-21 -144,47 -242,126 -296,239 -53,113 -60,245 -20,397l897 -292zm254 1626c-446,145 -823,150 -1130,14 -307,-136 -524,-400 -652,-794 -126,-385 -115,-729 32,-1031 148,-301 421,-517 819,-647 363,-117 667,-109 913,27 245,136 428,385 545,749l86 264 -1618 527c43,107 96,191 159,252 63,61 134,102 213,124 77,24 162,31 252,22 90,-8 186,-29 285,-61 86,-28 168,-65 244,-111 77,-46 145,-96 203,-150 52,-47 98,-94 139,-142 41,-48 74,-89 99,-124l78 -25 198 609c-53,43 -101,83 -144,120 -43,36 -105,79 -185,128 -73,47 -150,91 -231,130 -81,40 -183,79 -305,119z"/>
  <path class="fil2" d="M25246 4226l-62 13c-31,-4 -75,-3 -130,4 -57,7 -118,17 -185,31 -80,17 -161,46 -243,88 -83,41 -162,87 -238,136l345 1623 -757 161 -515 -2426 756 -161 75 348c28,-39 67,-89 118,-151 52,-61 99,-112 144,-151 48,-45 106,-87 174,-126 68,-40 134,-66 199,-80 25,-5 53,-10 83,-15 31,-5 59,-9 84,-12l152 718z"/>
  <polygon class="fil2" points="28038,5573 25881,5838 25819,5331 26835,3801 25703,3940 25633,3369 27713,3114 27774,3606 26760,5133 27965,4985"/>
  <path class="fil2" d="M30917 5519l-774 14 -6 -274c-131,114 -253,201 -364,261 -111,60 -244,92 -399,94 -246,5 -439,-70 -580,-223 -140,-152 -213,-385 -218,-697l-29 -1614 773 -14 22 1230c3,128 8,233 16,314 8,80 25,149 51,204 25,51 62,90 112,115 50,26 120,38 209,36 55,-1 119,-15 194,-43 74,-28 143,-65 206,-112l-31 -1757 774 -13 44 2479z"/>
  <polygon class="fil2" points="32487,5700 31715,5633 32014,2206 32786,2273"/>
  <path class="fil2" d="M34667 5773c-61,33 -115,64 -162,90 -48,27 -110,51 -187,72 -73,20 -144,33 -212,39 -67,5 -159,-3 -274,-26 -215,-42 -379,-149 -493,-322 -113,-172 -149,-368 -106,-589 35,-181 100,-321 194,-419 93,-97 214,-166 363,-204 149,-40 322,-55 517,-45 195,11 403,31 625,59l3 -13c26,-134 -5,-237 -93,-307 -89,-71 -232,-125 -430,-164 -89,-17 -196,-21 -322,-12 -126,10 -251,28 -374,57l-65 -13 115 -589c79,-7 205,-9 379,-6 173,3 345,21 515,54 420,81 712,210 876,387 164,178 218,410 163,697l-323 1660 -760 -148 51 -258zm74 -378l98 -510c-130,-12 -235,-21 -316,-27 -81,-5 -162,-2 -243,11 -71,11 -129,36 -175,76 -46,40 -76,99 -91,177 -23,115 -7,200 45,255 53,54 139,93 258,117 66,12 136,10 211,-7 75,-17 145,-48 213,-92z"/>
  <path class="fil2" d="M36837 6643c-175,-53 -334,-123 -478,-208 -144,-86 -259,-170 -345,-251l190 -624 61 19c28,37 59,79 94,125 35,46 88,99 158,159 58,53 128,104 208,154 79,50 170,90 271,121 105,32 201,44 291,35 90,-7 145,-47 166,-117 18,-55 11,-102 -17,-142 -28,-39 -90,-88 -189,-145 -52,-32 -118,-68 -200,-111 -81,-43 -151,-85 -211,-126 -169,-115 -283,-243 -342,-385 -59,-142 -60,-305 -5,-490 33,-105 87,-197 165,-276 77,-78 174,-140 291,-185 117,-42 251,-63 402,-63 153,0 316,27 491,81 167,50 314,114 444,190 130,76 235,152 317,227l-184 602 -60 -19c-19,-28 -51,-66 -95,-117 -45,-50 -90,-95 -135,-135 -53,-47 -116,-92 -187,-134 -71,-42 -147,-75 -228,-100 -106,-33 -203,-42 -288,-28 -86,14 -138,51 -156,112 -17,53 -11,101 16,143 28,43 98,97 212,164 58,35 127,73 205,113 78,40 151,84 220,133 154,107 259,227 315,361 55,132 56,287 2,463 -33,111 -92,209 -175,294 -83,85 -183,147 -299,186 -125,44 -262,65 -412,64 -151,-2 -321,-31 -513,-90z"/>
  <path class="fil2" d="M39279 7523c-166,-75 -317,-163 -450,-266 -132,-102 -236,-199 -312,-291l266 -596 58 26c22,40 49,86 78,136 29,50 75,109 137,177 53,60 115,119 187,178 73,60 159,110 255,154 100,44 195,68 285,70 90,3 149,-29 180,-96 23,-53 23,-100 0,-143 -24,-42 -81,-98 -171,-167 -47,-37 -109,-82 -184,-134 -76,-53 -141,-103 -195,-151 -153,-135 -251,-276 -292,-424 -42,-148 -23,-310 55,-486 45,-101 111,-186 197,-255 86,-69 190,-118 312,-147 120,-29 256,-34 407,-15 150,19 310,66 476,140 159,71 299,152 418,243 119,91 215,179 286,265l-255 574 -56 -25c-17,-30 -43,-73 -82,-128 -39,-55 -77,-105 -116,-151 -49,-54 -104,-106 -170,-156 -65,-50 -137,-92 -213,-127 -103,-45 -198,-66 -284,-63 -86,4 -143,34 -168,92 -23,52 -23,99 -1,145 21,45 84,108 190,188 53,42 117,87 189,137 74,49 140,102 202,158 140,125 230,258 269,397 39,139 21,292 -54,460 -47,107 -117,197 -210,271 -92,74 -199,123 -320,148 -129,28 -268,32 -416,13 -148,-19 -315,-70 -498,-151z"/>
  <path class="fil2" d="M42955 9312l-677 -375 133 -240c-172,32 -321,47 -447,44 -127,-4 -257,-43 -393,-119 -215,-119 -345,-279 -390,-483 -46,-202 7,-440 158,-713l783 -1412 677 375 -596 1076c-62,112 -110,206 -143,279 -34,74 -53,142 -58,203 -4,57 8,109 40,156 30,47 85,92 162,135 48,27 111,47 190,60 77,13 156,15 234,6l851 -1537 677 375 -1201 2170z"/>
  <path class="fil2" d="M45464 11171l-618 -466 741 -983c59,-79 116,-162 170,-246 52,-84 84,-152 95,-203 13,-61 6,-115 -20,-165 -25,-50 -72,-101 -139,-151 -51,-39 -110,-68 -176,-88 -66,-21 -145,-33 -235,-36l-1058 1403 -617 -466 1492 -1980 618 465 -165 219c166,-9 315,-2 447,22 132,24 257,80 373,168 203,153 310,334 321,542 11,208 -75,433 -258,676l-971 1289z"/>
  <path class="fil2" d="M47908 13021c-160,165 -319,282 -478,351 -159,69 -311,96 -457,80 -146,-14 -291,-62 -435,-145 -144,-83 -287,-192 -428,-329 -119,-115 -225,-232 -317,-351 -92,-119 -168,-226 -227,-322l433 -448 65 63c18,38 39,81 64,131 26,49 52,98 80,145 35,57 70,109 107,159 36,49 77,96 123,140 95,92 183,159 266,201 81,41 156,59 223,54 67,-6 131,-28 193,-65 61,-38 128,-95 202,-172l33 -33c-117,-5 -232,-32 -347,-78 -115,-46 -216,-111 -303,-195 -231,-225 -338,-472 -318,-744 18,-272 176,-562 472,-869 135,-140 276,-247 422,-320 147,-74 292,-116 436,-128 139,-11 275,8 408,57 133,50 250,124 351,221 91,89 162,179 212,272 50,93 86,188 108,285l97 -60 539 521 -1524 1579zm-210 -896l782 -811c-15,-39 -39,-83 -71,-131 -33,-48 -69,-91 -109,-130 -135,-130 -277,-184 -429,-163 -151,21 -302,109 -452,264 -74,78 -132,148 -174,212 -41,63 -69,129 -81,197 -12,66 -7,130 16,193 24,62 69,126 136,190 50,49 108,88 173,118 64,30 134,50 209,61z"/>
  <path class="fil2" d="M24880 55510l-112 -1215 -595 1065 707 150zm-2254 903l1891 -3187 941 200 432 3681 -888 -189 -65 -739 -1088 -232 -360 649 -863 -183z"/>
  <polygon class="fil2" points="29480,57409 26696,57215 26742,56557 28515,54496 26981,54389 27028,53719 29628,53901 29581,54571 27818,56621 29527,56740"/>
  <path class="fil2" d="M32224 55919l-442 -1137 -280 1188 722 -51zm-1918 1490l939 -3585 961 -67 1428 3419 -905 63 -266 -693 -1110 78 -168 723 -879 62z"/>
  <polygon class="fil2" points="36557,52974 36106,56658 35206,56849 33294,53667 34188,53477 35431,55646 35683,53160"/>
  <path class="fil3" d="M17231 34953c-1,-84 -17,-150 -47,-196 -30,-47 -71,-71 -123,-71 -71,0 -124,33 -158,100 -33,67 -50,172 -50,315 0,133 16,229 48,291 33,62 84,92 154,92 55,0 97,-18 127,-57 30,-38 49,-96 57,-175l392 27c-19,166 -79,296 -181,391 -101,94 -232,141 -395,141 -194,0 -349,-64 -465,-192 -115,-127 -173,-299 -173,-514 0,-231 57,-413 170,-542 114,-130 270,-195 471,-195 167,0 301,49 403,149 101,99 158,237 170,413l-400 23z"/>
  <polygon class="fil3" points="18794,35785 18794,34396 19840,34396 19840,34720 19200,34720 19200,34924 19726,34924 19726,35225 19200,35225 19200,35461 19848,35461 19848,35785"/>
  <path class="fil3" d="M21660 34692l-196 0 0 272 202 0c50,0 90,-13 121,-38 32,-25 48,-58 48,-98 0,-45 -15,-80 -44,-102 -29,-23 -73,-34 -131,-34zm-618 1093l0 -1389 678 0c182,0 318,33 409,101 90,68 136,169 136,305 0,94 -21,173 -62,238 -42,64 -102,111 -181,138l251 607 -457 0 -206 -527 -146 0 0 527 -422 0z"/>
  <polygon class="fil3" points="24049,34720 24049,35785 23623,35785 23623,34720 23349,34720 23349,34396 24324,34396 24324,34720"/>
  <polygon class="fil1" points="25447,34396 25880,34396 25880,35785 25447,35785"/>
  <polygon class="fil3" points="27114,35785 27114,34396 28119,34396 28119,34720 27540,34720 27540,34950 27995,34950 27995,35263 27540,35263 27540,35785"/>
  <polygon class="fil1" points="29252,34396 29687,34396 29687,35785 29252,35785"/>
  <path class="fil3" d="M31678 34953c-1,-84 -17,-150 -47,-196 -30,-47 -71,-71 -122,-71 -72,0 -124,33 -158,100 -34,67 -51,172 -51,315 0,133 17,229 49,291 32,62 84,92 153,92 54,0 97,-18 128,-57 30,-38 49,-96 56,-175l393 27c-20,166 -80,296 -182,391 -101,94 -232,141 -395,141 -194,0 -350,-64 -465,-192 -115,-127 -173,-299 -173,-514 0,-231 57,-413 170,-542 114,-130 270,-195 471,-195 167,0 301,49 403,149 101,99 158,237 171,413l-401 23z"/>
  <path class="fil3" d="M33594 35207l225 0 -113 -405 -112 405zm-498 578l428 -1389 451 0 436 1389 -439 0 -82 -279 -373 0 -78 279 -343 0z"/>
  <polygon class="fil3" points="36038,34720 36038,35785 35611,35785 35611,34720 35337,34720 35337,34396 36312,34396 36312,34720"/>
  <polygon class="fil1" points="37435,34396 37869,34396 37869,35785 37435,35785"/>
  <path class="fil3" d="M39705 35811c-88,0 -169,-14 -243,-42 -75,-29 -142,-69 -200,-124 -72,-67 -125,-148 -161,-241 -37,-93 -55,-199 -55,-316 0,-117 19,-221 56,-315 36,-93 90,-174 162,-241 56,-54 123,-96 196,-123 74,-28 156,-41 245,-41 89,0 171,13 245,41 74,27 140,69 198,123 71,67 123,147 160,240 36,93 53,198 53,316 0,118 -17,223 -53,317 -35,93 -88,173 -158,240 -59,55 -125,97 -200,124 -73,28 -155,42 -245,42zm-2 -327c69,0 120,-33 156,-100 34,-67 53,-166 53,-296 0,-129 -19,-227 -52,-294 -35,-66 -85,-100 -153,-100 -70,0 -123,33 -158,98 -35,65 -52,163 -52,296 0,132 17,232 51,297 34,67 86,99 155,99z"/>
  <polygon class="fil3" points="41538,35785 41538,34396 41940,34396 42387,35128 42369,34396 42721,34396 42721,35785 42377,35785 41871,34948 41886,35785"/>
  <path class="fil0" d="M41090 31930l1631 1548 -2303 0 -282 -268 -1946 -1845 -1841 -1744 2306 0 527 501 1908 1808zm-1300 1388c-52,12 -104,22 -158,31 -536,85 -1580,128 -3130,128 -1441,0 -2438,-43 -2992,-128 -802,-124 -1293,-565 -1475,-1320 -124,-519 -186,-1400 -186,-2641 0,-1237 62,-2115 186,-2635 182,-756 673,-1196 1475,-1320 557,-85 1577,-128 3061,-128 1483,0 2503,43 3059,128 803,124 1294,564 1476,1319 87,361 139,764 155,1209 21,458 31,950 31,1477 0,779 -13,1380 -58,1785 -14,124 -33,242 -57,355l-1980 -1877 2 -136c0,-535 -13,-921 -41,-1158 -46,-403 -153,-671 -321,-803 -151,-124 -469,-199 -952,-226 -171,-8 -609,-12 -1314,-12 -1105,0 -1770,33 -1995,99 -271,82 -446,266 -523,554 -74,287 -111,822 -111,1602 0,467 23,810 70,1032 81,404 333,635 756,693 309,47 947,70 1914,70 426,0 786,-7 1080,-21l2028 1923z"/>
  <polygon class="fil1" points="42693,33014 49496,25305 49923,25305 42926,33235"/>
  <polygon class="fil1" points="42229,32576 48645,25305 49072,25305 42462,32796"/>
  <path class="fil4" d="M20406 28855l4786 0c5,174 7,287 7,338 0,1040 -25,1843 -75,2409 -80,917 -530,1472 -1348,1666 -422,97 -885,155 -1388,174 -533,23 -1165,35 -1896,35 -1298,0 -2225,-54 -2781,-163 -771,-147 -1249,-558 -1433,-1233 -91,-329 -142,-707 -156,-1134 -17,-535 -25,-1105 -25,-1710 0,-1024 42,-1743 125,-2158 121,-578 311,-1006 606,-1243 154,-128 348,-225 581,-293 233,-68 563,-123 988,-166 601,-62 1415,-72 2438,-72 1315,0 2261,60 2808,180 553,119 943,332 1167,638 198,274 319,707 363,1299 9,158 15,402 15,731l-2055 0c0,-450 -277,-657 -529,-695 -332,-50 -974,-92 -1950,-92 -869,0 -1471,33 -1806,98 -318,66 -511,196 -578,532 -54,254 -81,708 -81,1361 0,750 29,1118 86,1393 73,366 302,571 684,613 188,20 755,52 1700,52 634,1 1589,13 1887,-85 247,-81 613,-318 613,-1140l-2753 0 0 -1335z"/>
  <polygon class="fil1" points="41766,32136 47793,25305 48221,25305 41998,32356"/>
  <path class="fil3" d="M24383 25305l8286 0 0 1873 -5102 4258 5331 0 0 2041 -8747 0 0 -1870 5014 -4255 -4782 0 0 -2047zm7969 318l-7652 0 0 1412 5330 0 -5562 4719 0 1406 8112 0 0 -1407 -5889 0 5661 -4724 0 -1406z"/>
  <polygon class="fil2" points="32352,25623 24700,25623 24700,27035 30030,27035 24468,31754 24468,33160 32580,33160 32580,31753 26691,31753 32352,27029"/>
 </g>
</svg>