<?xml version="1.0" encoding="UTF-8" standalone="no"?>
<!-- Created with Inkscape (http://www.inkscape.org/) -->

<svg
   width="2150mm"
   height="500mm"
   viewBox="0 0 2150 500"
   version="1.1"
   id="svg1"
   inkscape:version="1.4.2 (ebf0e940, 2025-05-08)"
   sodipodi:docname="FDM_GmbH_Logo_Offiziell.svg"
   inkscape:export-filename="FDM_GmbH_Logo_Offiziell.webp"
   inkscape:export-xdpi="96"
   inkscape:export-ydpi="96"
   xmlns:inkscape="http://www.inkscape.org/namespaces/inkscape"
   xmlns:sodipodi="http://sodipodi.sourceforge.net/DTD/sodipodi-0.dtd"
   xmlns:xlink="http://www.w3.org/1999/xlink"
   xmlns="http://www.w3.org/2000/svg"
   xmlns:svg="http://www.w3.org/2000/svg">
  <sodipodi:namedview
     id="namedview1"
     pagecolor="#ffffff"
     bordercolor="#000000"
     borderopacity="0.25"
     inkscape:showpageshadow="2"
     inkscape:pageopacity="0.0"
     inkscape:pagecheckerboard="0"
     inkscape:deskcolor="#d1d1d1"
     inkscape:document-units="mm"
     inkscape:lockguides="false"
     showgrid="true"
     showguides="true"
     inkscape:zoom="0.15947414"
     inkscape:cx="4044.5429"
     inkscape:cy="1125.5743"
     inkscape:window-width="1440"
     inkscape:window-height="872"
     inkscape:window-x="0"
     inkscape:window-y="28"
     inkscape:window-maximized="0"
     inkscape:current-layer="layer1">
    <inkscape:grid
       id="grid16"
       units="mm"
       originx="0"
       originy="0"
       spacingx="0.99999999"
       spacingy="0.99999999"
       empcolor="#0099e5"
       empopacity="0.30196078"
       color="#0099e5"
       opacity="0.14901961"
       empspacing="5"
       enabled="false"
       visible="true" />
  </sodipodi:namedview>
  <defs
     id="defs1">
    <radialGradient
       fx="0"
       fy="0"
       cx="0"
       cy="0"
       r="1"
       gradientUnits="userSpaceOnUse"
       gradientTransform="matrix(-1493.34,-919.999,-919.999,1493.34,3390.01,2463.33)"
       spreadMethod="pad"
       id="radialGradient3-0">
      <stop
         style="stop-opacity:1;stop-color:#51ade5"
         offset="0"
         id="stop2-7" />
      <stop
         style="stop-opacity:1;stop-color:#2c3892"
         offset="1"
         id="stop3-4" />
    </radialGradient>
    <clipPath
       clipPathUnits="userSpaceOnUse"
       id="clipPath3-8">
      <path
         d="m 3213.11,2126.83 c 97.94,62.74 191.89,126.59 281.15,190.7 -17.33,54.25 -38.91,106.6 -64.46,156.6 -117.71,-94.87 -247.89,-188.78 -388.02,-278.55 -679.25,-435.11 -1349.61,-617.84 -1557.62,-435.4 14.44,-61.35 34.3,-120.6 59.04,-177.26 138.28,-202.22 883.32,40.01 1669.91,543.91 z"
         transform="translate(0,-2.5e-5)"
         id="path3-5" />
    </clipPath>
    <radialGradient
       fx="0"
       fy="0"
       cx="0"
       cy="0"
       r="1"
       gradientUnits="userSpaceOnUse"
       gradientTransform="matrix(-1493.34,-920.002,-920.002,1493.34,3390.01,2463.33)"
       spreadMethod="pad"
       id="radialGradient5-8">
      <stop
         style="stop-opacity:1;stop-color:#d3d2d2"
         offset="0"
         id="stop4-3" />
      <stop
         style="stop-opacity:1;stop-color:#4f4c4d"
         offset="1"
         id="stop5-0" />
    </radialGradient>
    <clipPath
       clipPathUnits="userSpaceOnUse"
       id="clipPath5-6">
      <path
         d="m 3531.49,2158.75 c -117.84,-94.99 -248.06,-189.02 -388.36,-278.9 -628.83,-402.83 -1250.02,-589.3 -1503.81,-470.02 42.44,-61.79 91.38,-118.79 145.82,-170.01 191.76,-156.47 919.57,123.17 1676.9,652.42 27.09,18.94 53.76,37.97 80.23,57.05 0.8,16.81 1.25,33.71 1.25,50.71 0,53.96 -4.12,106.99 -12.03,158.75 z"
         transform="translate(0,-2.5e-5)"
         id="path5-2" />
    </clipPath>
    <radialGradient
       fx="0"
       fy="0"
       cx="0"
       cy="0"
       r="1"
       gradientUnits="userSpaceOnUse"
       gradientTransform="matrix(-1493.34,-920,-920,1493.34,3390.01,2463.33)"
       spreadMethod="pad"
       id="radialGradient7">
      <stop
         style="stop-opacity:1;stop-color:#51ade5"
         offset="0"
         id="stop6" />
      <stop
         style="stop-opacity:1;stop-color:#2c3892"
         offset="1"
         id="stop7" />
    </radialGradient>
    <clipPath
       clipPathUnits="userSpaceOnUse"
       id="clipPath7">
      <path
         d="m 3001.45,2455.47 c 106.82,68.43 208.42,138.31 303.75,208.33 -191.39,231.91 -481.06,379.73 -805.22,379.73 -574.64,0 -1040.72,-464.45 -1043.49,-1038.42 2.65,-16.27 7.97,-31.09 16.37,-44.21 121.55,-189.77 805.94,31.64 1528.59,494.57 z"
         transform="translate(0,-2.5e-5)"
         id="path7" />
    </clipPath>
    <radialGradient
       fx="0"
       fy="0"
       cx="0"
       cy="0"
       r="1"
       gradientUnits="userSpaceOnUse"
       gradientTransform="matrix(-1493.35,-920.004,-920.004,1493.35,3390.01,2463.33)"
       spreadMethod="pad"
       id="radialGradient9">
      <stop
         style="stop-opacity:1;stop-color:#d3d2d2"
         offset="0"
         id="stop8" />
      <stop
         style="stop-opacity:1;stop-color:#4f4c4d"
         offset="1"
         id="stop9" />
    </radialGradient>
    <clipPath
       clipPathUnits="userSpaceOnUse"
       id="clipPath9">
      <path
         d="m 2012.07,1077.39 c 145.63,-77.16 311.65,-120.921 487.91,-120.921 491.42,0 903.46,339.731 1014.17,797.131 -52.04,-39.85 -105.92,-79.32 -161.49,-118.15 C 2834.72,1273.49 2315.98,1066.5 2012.07,1077.39 Z"
         transform="translate(0,-2.5e-5)"
         id="path9" />
    </clipPath>
    <radialGradient
       inkscape:collect="always"
       xlink:href="#radialGradient3-0"
       id="radialGradient12"
       gradientUnits="userSpaceOnUse"
       gradientTransform="matrix(-1493.34,-919.999,-919.999,1493.34,3390.01,2463.33)"
       cx="0"
       cy="0"
       fx="0"
       fy="0"
       r="1"
       spreadMethod="pad" />
    <radialGradient
       inkscape:collect="always"
       xlink:href="#radialGradient5-8"
       id="radialGradient13"
       gradientUnits="userSpaceOnUse"
       gradientTransform="matrix(-1493.34,-920.002,-920.002,1493.34,3390.01,2463.33)"
       cx="0"
       cy="0"
       fx="0"
       fy="0"
       r="1"
       spreadMethod="pad" />
    <radialGradient
       inkscape:collect="always"
       xlink:href="#radialGradient7"
       id="radialGradient14"
       gradientUnits="userSpaceOnUse"
       gradientTransform="matrix(-1493.34,-920,-920,1493.34,3390.01,2463.33)"
       cx="0"
       cy="0"
       fx="0"
       fy="0"
       r="1"
       spreadMethod="pad" />
    <radialGradient
       inkscape:collect="always"
       xlink:href="#radialGradient9"
       id="radialGradient15"
       gradientUnits="userSpaceOnUse"
       gradientTransform="matrix(-1493.35,-920.004,-920.004,1493.35,3390.01,2463.33)"
       cx="0"
       cy="0"
       fx="0"
       fy="0"
       r="1"
       spreadMethod="pad" />
  </defs>
  <g
     inkscape:label="Ebene 1"
     inkscape:groupmode="layer"
     id="layer1">
    <text
       xml:space="preserve"
       style="font-style:normal;font-variant:normal;font-weight:bold;font-stretch:normal;font-size:175.591px;font-family:sans-serif;-inkscape-font-specification:'sans-serif Bold';text-align:start;writing-mode:lr-tb;direction:ltr;text-anchor:start;fill:#6d6b6c;fill-opacity:1;stroke-width:1.82908"
       x="1647.8995"
       y="432.08279"
       id="text39"
       transform="scale(0.9473972,1.0555235)"><tspan
         sodipodi:role="line"
         id="tspan39"
         x="1647.8995"
         y="432.08279"
         style="fill:#6d6b6c;fill-opacity:1;stroke-width:1.82908">GmbH</tspan></text>
    <text
       xml:space="preserve"
       style="font-style:normal;font-variant:normal;font-weight:bold;font-stretch:normal;font-size:504.24px;font-family:sans-serif;-inkscape-font-specification:'sans-serif Bold';text-align:start;writing-mode:lr-tb;direction:ltr;text-anchor:start;fill:#3f74bc;fill-opacity:1;stroke-width:5.25249"
       x="475.84796"
       y="418.97308"
       id="use1"
       transform="scale(0.91542978,1.0923831)"><tspan
         sodipodi:role="line"
         id="tspan15"
         x="475.84796"
         y="418.97308"
         style="stroke-width:5.25249">FDM </tspan></text>
    <text
       xml:space="preserve"
       style="font-style:normal;font-variant:normal;font-weight:bold;font-stretch:normal;font-size:52.7856px;font-family:sans-serif;-inkscape-font-specification:'sans-serif Bold';text-align:start;writing-mode:lr-tb;direction:ltr;text-anchor:start;fill:#3f74bc;fill-opacity:1;stroke-width:0.549848"
       x="1584.7466"
       y="97.074089"
       id="use3"
       transform="scale(0.96774349,1.0333317)"><tspan
         sodipodi:role="line"
         id="tspan16"
         x="1584.7466"
         y="97.074089"
         style="fill:#3f74bc;fill-opacity:1;stroke-width:0.549848">®</tspan></text>
    <g
       id="use4"
       transform="matrix(1.4883977,0,0,1.4419333,-264.60832,-123.25383)">
      <path
         id="path5"
         d="m 3213.11,2126.83 c 97.94,62.74 191.89,126.59 281.15,190.7 -17.33,54.25 -38.91,106.6 -64.46,156.6 -117.71,-94.87 -247.89,-188.78 -388.02,-278.55 -679.25,-435.11 -1349.61,-617.84 -1557.62,-435.4 14.44,-61.35 34.3,-120.6 59.04,-177.26 138.28,-202.22 883.32,40.01 1669.91,543.91"
         style="fill:url(#radialGradient12);fill-opacity:1;fill-rule:nonzero;stroke:none"
         transform="matrix(0.13333333,0,0,-0.13333333,0,533.33333)"
         clip-path="url(#clipPath3-8)" />
      <path
         id="path10"
         d="m 3531.49,2158.75 c -117.84,-94.99 -248.06,-189.02 -388.36,-278.9 -628.83,-402.83 -1250.02,-589.3 -1503.81,-470.02 42.44,-61.79 91.38,-118.79 145.82,-170.01 191.76,-156.47 919.57,123.17 1676.9,652.42 27.09,18.94 53.76,37.97 80.23,57.05 0.8,16.81 1.25,33.71 1.25,50.71 0,53.96 -4.12,106.99 -12.03,158.75"
         style="fill:url(#radialGradient13);fill-opacity:1;fill-rule:nonzero;stroke:none"
         transform="matrix(0.13333333,0,0,-0.13333333,0,533.33333)"
         clip-path="url(#clipPath5-6)" />
      <path
         id="path11"
         d="m 3001.45,2455.47 c 106.82,68.43 208.42,138.31 303.75,208.33 -191.39,231.91 -481.06,379.73 -805.22,379.73 -574.64,0 -1040.72,-464.45 -1043.49,-1038.42 2.65,-16.27 7.97,-31.09 16.37,-44.21 121.55,-189.77 805.94,31.64 1528.59,494.57"
         style="fill:url(#radialGradient14);fill-opacity:1;fill-rule:nonzero;stroke:none"
         transform="matrix(0.13333333,0,0,-0.13333333,0,533.33333)"
         clip-path="url(#clipPath7)" />
      <path
         id="path12"
         d="m 2012.07,1077.39 c 145.63,-77.16 311.65,-120.921 487.91,-120.921 491.42,0 903.46,339.731 1014.17,797.131 -52.04,-39.85 -105.92,-79.32 -161.49,-118.15 C 2834.72,1273.49 2315.98,1066.5 2012.07,1077.39"
         style="fill:url(#radialGradient15);fill-opacity:1;fill-rule:nonzero;stroke:none"
         transform="matrix(0.13333333,0,0,-0.13333333,0,533.33333)"
         clip-path="url(#clipPath9)" />
    </g>
  </g>
</svg>
